<?xml version="1.0" encoding="utf-8"?>


<!-- The icon can be used freely in both personal and commercial projects with no attribution required, but always appreciated. 
You may NOT sub-license, resell, rent, redistribute or otherwise transfer the icon without express written permission from iconmonstr.com -->


<!DOCTYPE svg PUBLIC "-//W3C//DTD SVG 1.1//EN" "http://www.w3.org/Graphics/SVG/1.1/DTD/svg11.dtd">

<svg version="1.1" xmlns="http://www.w3.org/2000/svg" xmlns:xlink="http://www.w3.org/1999/xlink" x="0px" y="0px"

	 width="512px" height="512px" viewBox="0 0 512 512" enable-background="new 0 0 512 512" xml:space="preserve">

<path id="dribbble-circle-icon" d="M273.961,276.658c10.744,28.04,18.644,56.891,23.666,86.439

	c-12.814,4.947-26.675,7.77-41.21,7.77c-26.58,0-51.013-9.156-70.496-24.371C208.737,310.713,237.863,287.424,273.961,276.658z

	 M204.59,153.628c-29.497,14.993-51.626,42.312-59.648,75.167c38.856-0.266,72.475-4.526,100.63-12.814

	C233.687,194.62,220.019,173.817,204.59,153.628z M326.435,165.146c-19.407-14.993-43.653-24.014-70.018-24.014

	c-9.736,0-19.145,1.35-28.177,3.644c15.19,20.415,28.649,41.442,40.425,63.007C293.211,197.388,312.48,183.146,326.435,165.146z

	 M264.752,254.305c-2.47-5.564-5.055-11.093-7.757-16.59c-32.233,10.125-70.703,15.258-115.295,15.32

	c-0.026,0.993-0.151,1.964-0.151,2.964c0,27.889,10.011,53.479,26.604,73.397C193.322,291.637,225.596,266.545,264.752,254.305z

	 M297.928,271.559c9.729,26.003,17.168,52.661,22.246,79.92c26.08-17.476,44.516-45.361,49.581-77.643

	C343.585,269.29,319.657,268.492,297.928,271.559z M462.417,256c0,113.771-92.229,206-206,206s-206-92.229-206-206

	s92.229-206,206-206S462.417,142.229,462.417,256z M395.467,256c0-76.796-62.255-139.05-139.05-139.05

	c-76.796,0-139.05,62.254-139.05,139.05c0,76.793,62.254,139.05,139.05,139.05C333.212,395.05,395.467,332.793,395.467,256z

	 M279.772,229.208c3.126,6.438,6.058,12.939,8.886,19.468c25.021-4.31,52.463-4.048,82.299,0.847

	c-1.444-25.685-11.262-49.139-26.898-67.609C328.037,201.881,306.529,217.624,279.772,229.208z"/>

</svg>

