<?xml version="1.0" encoding="iso-8859-1"?>
<!-- Generator: Adobe Illustrator 16.0.0, SVG Export Plug-In . SVG Version: 6.00 Build 0)  -->
<!DOCTYPE svg PUBLIC "-//W3C//DTD SVG 1.1//EN" "http://www.w3.org/Graphics/SVG/1.1/DTD/svg11.dtd">
<svg version="1.1" id="Capa_1" xmlns="http://www.w3.org/2000/svg" xmlns:xlink="http://www.w3.org/1999/xlink" x="0px" y="0px"
	 width="612px" height="612px" viewBox="0 0 612 612" style="enable-background:new 0 0 612 612;" xml:space="preserve">
<g>
	<g id="grid_5">
		<g>
			<path d="M0,0v612h612V0H0z M572.564,383.705H420.75V229.5h151.814V383.705z M382.5,383.705h-153V229.5h153V383.705z
				 M382.5,420.75v153h-153v-153H382.5z M38.25,229.5h153v154.186h-153V229.5z M229.5,191.25V39.455h153V191.25H229.5z
				 M191.25,39.455V191.25h-153V39.455H191.25z M38.25,420.75h153v153h-153V420.75z M420.75,573.75v-153h151.814v153H420.75z
				 M572.564,191.25H420.75V39.455h151.814V191.25z"/>
		</g>
	</g>
</g>
<g>
</g>
<g>
</g>
<g>
</g>
<g>
</g>
<g>
</g>
<g>
</g>
<g>
</g>
<g>
</g>
<g>
</g>
<g>
</g>
<g>
</g>
<g>
</g>
<g>
</g>
<g>
</g>
<g>
</g>
</svg>
